<svg xmlns="http://www.w3.org/2000/svg" xmlns:xlink="http://www.w3.org/1999/xlink" viewBox="0 0 1920 1080"><defs><style>.cls-1,.cls-14,.cls-28,.cls-5{fill:none;}.cls-2{isolation:isolate;}.cls-3{clip-path:url(#clip-path);}.cls-4{fill:#a5f9f1;}.cls-5{stroke:#61ac36;stroke-width:10px;}.cls-14,.cls-28,.cls-5{stroke-miterlimit:10;}.cls-6{fill:#d4353a;}.cls-7{fill:#f43c48;}.cls-8{fill:#6194b1;}.cls-9{fill:#62acdd;}.cls-10{fill:#93c762;}.cls-11{fill:#61ac36;}.cls-12{fill:#7b4403;}.cls-13{fill:#00a08f;}.cls-14{stroke:#00a08f;stroke-width:7.59px;}.cls-15{fill:#e65e73;}.cls-16{fill:#ee7b7f;}.cls-17{fill:#e7848b;}.cls-18{fill:#c63c63;}.cls-19{fill:#e14e74;}.cls-20{fill:#fff;}.cls-21{fill:#721c45;}.cls-22{fill:#e88b9d;}.cls-23{fill:#7c5da3;}.cls-24{fill:#b7a8ae;mix-blend-mode:soft-light;}.cls-25{fill:#f29100;}.cls-26{fill:#f8af00;}.cls-27{fill:#cc5867;}.cls-28{stroke:#cc5867;stroke-width:7.64px;}.cls-29{fill:#e6786e;}.cls-30{fill:#e7857d;}.cls-31{fill:#f9ca56;}.cls-32{fill:#f6aa64;}.cls-33{fill:#e75498;}.cls-34{fill:#f29d9c;}.cls-35{fill:#fbe3ef;}.cls-36{fill:#358a6d;}.cls-37{fill:#5baaec;}.cls-38{fill:#35885e;}.cls-39{fill:#61ad33;}.cls-40{fill:#4b9179;}.cls-41{fill:#eb3d3f;}</style><clipPath id="clip-path"><rect class="cls-1" width="1920" height="1080"/></clipPath></defs><title>second</title><g class="cls-2"><g id="Layer_1" data-name="Layer 1"><g class="cls-3"><rect class="cls-4" width="1920" height="1080"/><line class="cls-5" x1="1311.39" y1="758.97" x2="1311.39" y2="834.28"/><path class="cls-6" d="M1311.68,727a18.12,18.12,0,1,0,0,36.23l.42,0V727Z"/><path class="cls-7" d="M1329.79,745.12A18.1,18.1,0,0,0,1312.1,727v36.19A18.09,18.09,0,0,0,1329.79,745.12Z"/><path class="cls-6" d="M1344.36,772.47a18.12,18.12,0,1,0,0,36.23l.42,0V772.49Z"/><path class="cls-7" d="M1362.47,790.59a18.1,18.1,0,0,0-17.69-18.1v36.19A18.09,18.09,0,0,0,1362.47,790.59Z"/><line class="cls-5" x1="1380.3" y1="758.97" x2="1380.3" y2="834.28"/><path class="cls-6" d="M1380.59,727a18.12,18.12,0,1,0,0,36.23l.42,0V727Z"/><path class="cls-7" d="M1398.71,745.12A18.11,18.11,0,0,0,1381,727v36.19A18.1,18.1,0,0,0,1398.71,745.12Z"/><line class="cls-5" x1="1420.09" y1="790.94" x2="1420.09" y2="866.25"/><path class="cls-6" d="M1420.38,759a18.12,18.12,0,1,0,0,36.23l.42,0V759Z"/><path class="cls-7" d="M1438.49,777.09A18.1,18.1,0,0,0,1420.8,759v36.19A18.09,18.09,0,0,0,1438.49,777.09Z"/><line class="cls-5" x1="1344.07" y1="804.44" x2="1344.07" y2="879.75"/><rect class="cls-8" x="1299.13" y="840.67" width="134.99" height="54"/><rect class="cls-9" x="1290.25" y="830.73" width="152.75" height="9.95" rx="4.97"/><rect class="cls-10" x="187" y="753.79" width="21.5" height="196.73" rx="10.75"/><rect class="cls-11" x="208.5" y="729.58" width="21.5" height="196.73" rx="10.75"/><rect class="cls-10" x="230" y="762.27" width="21.5" height="196.73" rx="10.75"/><rect class="cls-11" x="251.5" y="709" width="21.5" height="196.73" rx="10.75"/><rect class="cls-10" x="273" y="755.61" width="21.5" height="196.73" rx="10.75"/><rect class="cls-11" x="294.5" y="726.55" width="21.5" height="196.73" rx="10.75"/><rect class="cls-10" x="1509" y="774.79" width="21.5" height="196.73" rx="10.75"/><rect class="cls-11" x="1530.5" y="750.58" width="21.5" height="196.73" rx="10.75"/><rect class="cls-10" x="1552" y="783.27" width="21.5" height="196.73" rx="10.75"/><rect class="cls-11" x="1573.5" y="730" width="21.5" height="196.73" rx="10.75"/><rect class="cls-10" x="1595" y="776.61" width="21.5" height="196.73" rx="10.75"/><rect class="cls-11" x="1616.5" y="747.55" width="21.5" height="196.73" rx="10.75"/><rect class="cls-12" y="884" width="1920" height="196"/><path class="cls-13" d="M1849.35,932.81c0,11.7,8,21.18,8,21.18s8-9.48,8-21.18-8-21.18-8-21.18S1849.35,921.11,1849.35,932.81Z"/><path class="cls-13" d="M1839.5,964.24c5.78,10.17,17.38,14.47,17.38,14.47s2.22-12.17-3.57-22.33-17.39-14.47-17.39-14.47S1833.71,954.08,1839.5,964.24Z"/><path class="cls-13" d="M1875.11,969.81c-5.79,10.16-17.39,14.47-17.39,14.47s-2.22-12.17,3.57-22.34,17.39-14.47,17.39-14.47S1880.9,959.65,1875.11,969.81Z"/><path class="cls-13" d="M1839.5,1004.59c5.78,10.16,17.38,14.47,17.38,14.47s2.22-12.18-3.57-22.34-17.39-14.47-17.39-14.47S1833.71,994.42,1839.5,1004.59Z"/><path class="cls-13" d="M1875.11,1010.15c-5.79,10.17-17.39,14.47-17.39,14.47s-2.22-12.17,3.57-22.33,17.39-14.47,17.39-14.47S1880.9,1000,1875.11,1010.15Z"/><path class="cls-13" d="M1839.5,1044.93c5.78,10.16,17.38,14.47,17.38,14.47s2.22-12.17-3.57-22.34-17.39-14.47-17.39-14.47S1833.71,1034.77,1839.5,1044.93Z"/><path class="cls-13" d="M1875.11,1050.5c-5.79,10.16-17.39,14.47-17.39,14.47s-2.22-12.18,3.57-22.34,17.39-14.47,17.39-14.47S1880.9,1040.33,1875.11,1050.5Z"/><line class="cls-14" x1="1857.3" y1="950.43" x2="1857.3" y2="1078"/><path class="cls-13" d="M1727.87,926.3a6.41,6.41,0,1,0,10.91,0c0-9.51-3.63-24.64-5.45-24.64S1727.87,916.79,1727.87,926.3Z"/><path class="cls-13" d="M1720.75,947.6a16.32,16.32,0,0,0,12.54,6.86,36.69,36.69,0,0,0-4.29-18.38c-4.53-8.55-11.5-17.51-13.09-16.43S1712.57,935.68,1720.75,947.6Z"/><path class="cls-13" d="M1745.91,953.63a16.31,16.31,0,0,1-12.54,6.87,36.56,36.56,0,0,1,4.29-18.38c4.53-8.56,11.5-17.52,13.09-16.43S1754.09,941.71,1745.91,953.63Z"/><path class="cls-13" d="M1720.75,979.72a16.32,16.32,0,0,0,12.54,6.86A36.69,36.69,0,0,0,1729,968.2c-4.53-8.55-11.5-17.51-13.09-16.43S1712.57,967.8,1720.75,979.72Z"/><path class="cls-13" d="M1745.91,985.76a16.32,16.32,0,0,1-12.54,6.86,36.56,36.56,0,0,1,4.29-18.38c4.53-8.55,11.5-17.52,13.09-16.43S1754.09,973.83,1745.91,985.76Z"/><path class="cls-13" d="M1720.75,1057.75a16.31,16.31,0,0,0,12.54,6.87,36.69,36.69,0,0,0-4.29-18.38c-4.53-8.55-11.5-17.52-13.09-16.43S1712.57,1045.83,1720.75,1057.75Z"/><path class="cls-13" d="M1745.91,1063.79a16.31,16.31,0,0,1-12.54,6.87,36.56,36.56,0,0,1,4.29-18.38c4.53-8.55,11.5-17.52,13.09-16.43S1754.09,1051.87,1745.91,1063.79Z"/><line class="cls-14" x1="1733.33" y1="932.52" x2="1733.33" y2="1086"/><path class="cls-15" d="M1718.18,997.05c.65,1.92,5,10,6.72,9.45s.32-9.67-.33-11.6-3.69-3.6-4.87-3.23S1717.54,995.13,1718.18,997.05Z"/><path class="cls-15" d="M1714.84,999.09c1.41,1.45,6.67,9,5.34,10.29s-8.75-4.12-10.16-5.57-1.53-4.94-.67-5.81S1713.42,997.65,1714.84,999.09Z"/><path class="cls-16" d="M1713,998.48c1.13,1.85,7.55,9.26,9.25,8.22s-2-10.13-3.11-12a4.5,4.5,0,0,0-5.12-1.47C1713.09,993.86,1711.84,996.64,1713,998.48Z"/><path class="cls-13" d="M1714,1006.87c2.52,4.12,9.68,5.41,10.8,4.73s2.88-8.21.7-11.77l-.23,1.92-2.2-.43-1.08,2.43-2.33-.35-.68,2.2-2.33-.36-.28,2Z"/><path class="cls-14" d="M1720.24,1005.58a39.5,39.5,0,0,1,13.09,29.77"/><path class="cls-15" d="M1748.48,1001.74c-.65,1.92-5,10-6.73,9.45s-.31-9.67.34-11.59,3.69-3.61,4.86-3.24S1749.12,999.82,1748.48,1001.74Z"/><path class="cls-15" d="M1751.82,1003.78c-1.42,1.45-6.68,9-5.34,10.29s8.74-4.12,10.16-5.57,1.53-4.93.66-5.81S1753.24,1002.33,1751.82,1003.78Z"/><path class="cls-16" d="M1753.69,1003.17c-1.13,1.85-7.56,9.26-9.25,8.23s2-10.14,3.11-12a4.51,4.51,0,0,1,5.11-1.47C1753.57,998.55,1754.82,1001.33,1753.69,1003.17Z"/><path class="cls-13" d="M1752.66,1011.56c-2.52,4.12-9.68,5.41-10.8,4.73s-2.88-8.21-.71-11.77l.24,1.92,2.2-.43,1.08,2.44,2.33-.36.67,2.2,2.34-.36.27,2Z"/><path class="cls-14" d="M1746.42,1010.27a39.53,39.53,0,0,0-13.09,29.77"/><line class="cls-14" x1="194.13" y1="954.43" x2="194.13" y2="1082"/><line class="cls-14" x1="194.13" y1="983.74" x2="181.12" y2="957.71"/><line class="cls-14" x1="194.13" y1="996.76" x2="207.15" y2="970.73"/><line class="cls-14" x1="194.13" y1="1024.72" x2="181.12" y2="998.69"/><line class="cls-14" x1="194.13" y1="1037.74" x2="207.15" y2="1011.71"/><line class="cls-14" x1="194.13" y1="1065.71" x2="181.12" y2="1039.68"/><line class="cls-14" x1="194.13" y1="1078.72" x2="207.15" y2="1052.69"/><path class="cls-17" d="M189.55,936.81c3,0,3.39,3.39,4.58,3.39s1.11-3,4.59-3.39c2.76-.28,5,2.57,5,5.75,0,7.85-9.61,13.72-9.61,13.72s-9.61-6.39-9.61-13.72C184.52,939.38,186.77,936.83,189.55,936.81Z"/><path class="cls-17" d="M169.38,949.4c2.19-1.56,4.23.75,5.1.14s-.74-2.8,1.63-4.84c1.88-1.62,5-.68,6.63,1.65,4,5.76,0,15,0,15s-10.32.24-14.07-5.14C167,953.86,167.35,950.83,169.38,949.4Z"/><path class="cls-17" d="M175.77,975.68c-.15-2,2-2.37,2-3.15s-2-.58-2.42-2.83c-.31-1.79,1.45-3.39,3.51-3.54,5.1-.36,9.36,5.63,9.36,5.63s-3.71,6.56-8.47,6.9A3.55,3.55,0,0,1,175.77,975.68Z"/><path class="cls-17" d="M168.79,989.25c2.2-1.56,4.23.75,5.11.14s-.74-2.8,1.62-4.83c1.89-1.63,5-.69,6.63,1.64,4,5.76,0,15,0,15s-10.32.24-14.08-5.14C166.43,993.71,166.77,990.68,168.79,989.25Z"/><path class="cls-17" d="M175.18,1015c-.15-2,2-2.37,2-3.14s-2-.59-2.42-2.83c-.31-1.79,1.44-3.4,3.51-3.54,5.1-.36,9.35,5.63,9.35,5.63s-3.7,6.56-8.46,6.89A3.55,3.55,0,0,1,175.18,1015Z"/><path class="cls-17" d="M169.38,1030.79c2.19-1.55,4.23.75,5.1.14s-.74-2.79,1.63-4.83c1.88-1.62,5-.69,6.63,1.64,4,5.76,0,15,0,15s-10.32.23-14.07-5.14C167,1035.26,167.35,1032.23,169.38,1030.79Z"/><path class="cls-17" d="M175.77,1056.51c-.15-2,2-2.37,2-3.15s-2-.58-2.42-2.83c-.31-1.78,1.45-3.39,3.51-3.54,5.1-.36,9.36,5.63,9.36,5.63s-3.71,6.56-8.47,6.9A3.54,3.54,0,0,1,175.77,1056.51Z"/><path class="cls-17" d="M220.29,959.94c-2.2-1.56-4.23.75-5.11.14s.74-2.8-1.62-4.84c-1.89-1.62-5-.68-6.63,1.65-4,5.76,0,15,0,15s10.32.24,14.08-5.14C222.66,964.4,222.31,961.37,220.29,959.94Z"/><path class="cls-17" d="M213.89,986.22c.16-2-2-2.38-2-3.15s2-.58,2.42-2.83c.31-1.79-1.44-3.39-3.51-3.54-5.1-.36-9.35,5.63-9.35,5.63s3.7,6.56,8.46,6.89A3.53,3.53,0,0,0,213.89,986.22Z"/><path class="cls-17" d="M219.47,1002.26c-2.2-1.55-4.24.75-5.11.14s.74-2.79-1.62-4.83c-1.89-1.62-5-.69-6.63,1.64-4,5.76,0,15,0,15s10.32.23,14.08-5.14C221.83,1006.73,221.49,1003.7,219.47,1002.26Z"/><path class="cls-17" d="M213.14,1028c.15-2-2-2.37-2-3.15s2-.58,2.42-2.83c.31-1.79-1.44-3.39-3.51-3.54-5.1-.36-9.35,5.63-9.35,5.63s3.7,6.56,8.47,6.9A3.54,3.54,0,0,0,213.14,1028Z"/><path class="cls-17" d="M219.47,1043.25c-2.2-1.56-4.24.74-5.11.14s.74-2.8-1.62-4.84c-1.89-1.62-5-.68-6.63,1.65-4,5.76,0,15,0,15s10.32.24,14.08-5.14C221.83,1047.71,221.49,1044.68,219.47,1043.25Z"/><path class="cls-17" d="M213.14,1069c.15-2-2-2.37-2-3.14s2-.59,2.42-2.84c.31-1.78-1.44-3.39-3.51-3.53-5.1-.37-9.35,5.63-9.35,5.63s3.7,6.55,8.47,6.89A3.54,3.54,0,0,0,213.14,1069Z"/><line class="cls-14" x1="290.2" y1="955.43" x2="290.2" y2="1083"/><line class="cls-14" x1="290.2" y1="984.74" x2="277.19" y2="958.71"/><line class="cls-14" x1="290.2" y1="997.76" x2="303.22" y2="971.73"/><line class="cls-14" x1="290.2" y1="1025.72" x2="277.19" y2="999.69"/><line class="cls-14" x1="290.2" y1="1038.74" x2="303.22" y2="1012.71"/><line class="cls-14" x1="290.2" y1="1066.71" x2="277.19" y2="1040.68"/><line class="cls-14" x1="290.2" y1="1079.72" x2="303.22" y2="1053.69"/><path class="cls-13" d="M271.12,964.86a16.31,16.31,0,0,0,12.54,6.87,36.64,36.64,0,0,0-4.3-18.38c-4.53-8.55-11.5-17.52-13.09-16.43S262.93,952.94,271.12,964.86Z"/><path class="cls-13" d="M271.12,1004.17a16.31,16.31,0,0,0,12.54,6.87,36.64,36.64,0,0,0-4.3-18.38c-4.53-8.55-11.5-17.52-13.09-16.43S262.93,992.25,271.12,1004.17Z"/><path class="cls-13" d="M268,1040.74a16.32,16.32,0,0,0,12.54,6.87,36.56,36.56,0,0,0-4.29-18.38c-4.53-8.55-11.5-17.52-13.09-16.43S259.84,1028.82,268,1040.74Z"/><path class="cls-13" d="M309.29,975.8a16.31,16.31,0,0,1-12.54,6.87A36.69,36.69,0,0,1,301,964.29c4.54-8.55,11.5-17.52,13.09-16.43S317.47,963.88,309.29,975.8Z"/><path class="cls-13" d="M309.29,1015.11a16.31,16.31,0,0,1-12.54,6.87A36.69,36.69,0,0,1,301,1003.6c4.54-8.55,11.5-17.52,13.09-16.43S317.47,1003.19,309.29,1015.11Z"/><path class="cls-13" d="M312.38,1051.68a16.31,16.31,0,0,1-12.54,6.87,36.64,36.64,0,0,1,4.3-18.38c4.53-8.55,11.49-17.52,13.09-16.43S320.56,1039.76,312.38,1051.68Z"/><path class="cls-13" d="M283.29,946.16a16.3,16.3,0,0,0,6.85,12.55,36.65,36.65,0,0,0,6.3-17.79c.8-9.65-.23-20.95-2.16-20.9S282.83,931.71,283.29,946.16Z"/><path class="cls-18" d="M861,1052.57c-4.34-2-21.58-13.41-20-16.77s21.36,2.58,25.7,4.61,9.43,8.28,8.07,11.19S865.34,1054.6,861,1052.57Z"/><path class="cls-18" d="M831.39,1053.21c2-4.33,13.42-21.58,16.77-20s-2.58,21.37-4.61,25.7-8.27,9.43-11.18,8.07S829.37,1057.55,831.39,1053.21Z"/><path class="cls-18" d="M860.37,1023c-2,4.33-13.42,21.58-16.77,20s2.58-21.37,4.6-25.7,8.28-9.44,11.19-8.07S862.39,1018.62,860.37,1023Z"/><path class="cls-18" d="M846.33,1059c-1.63-4.5-5.77-24.75-2.29-26S857.33,1050,859,1054.45s.81,12.52-2.21,13.62S848,1063.52,846.33,1059Z"/><path class="cls-18" d="M845.43,1017.14c1.63,4.5,5.77,24.75,2.29,26s-13.29-16.93-14.92-21.43S832,1009.2,835,1008.1,843.8,1012.65,845.43,1017.14Z"/><path class="cls-18" d="M824.94,1038.54c4.5-1.63,24.74-5.78,26-2.29s-16.94,13.28-21.43,14.91S817,1052,815.9,1049,820.44,1040.17,824.94,1038.54Z"/><path class="cls-18" d="M830.26,1027.18c4.48,1.68,22.57,11.68,21.27,15.15s-21.5-.89-26-2.57-10.06-7.51-8.93-10.52S825.78,1025.5,830.26,1027.18Z"/><path class="cls-18" d="M866.82,1037.63c-4.5,1.63-24.75,5.78-26,2.29s16.94-13.28,21.43-14.91,12.53-.82,13.62,2.2S871.32,1036,866.82,1037.63Z"/><path class="cls-19" d="M862.75,1045.47c-4.15,0-21.9-2.61-21.9-5.82s17.75-5.83,21.9-5.83,10.46,3,10.46,5.83S866.9,1045.47,862.75,1045.47Z"/><path class="cls-19" d="M828.32,1033.82c4.15,0,21.89,2.61,21.89,5.83s-17.74,5.82-21.89,5.82-10.46-3-10.46-5.82S824.16,1033.82,828.32,1033.82Z"/><path class="cls-19" d="M839.71,1056.86c0-4.15,2.61-21.89,5.82-21.89s5.83,17.74,5.83,21.89-3,10.46-5.83,10.46S839.71,1061,839.71,1056.86Z"/><path class="cls-19" d="M851.36,1022.43c0,4.15-2.61,21.89-5.83,21.89s-5.82-17.74-5.82-21.89,3-10.46,5.82-10.46S851.36,1018.28,851.36,1022.43Z"/><path class="cls-19" d="M853.59,1055.94c-2.94-2.94-13.64-17.33-11.37-19.6s16.67,8.43,19.61,11.36,5.24,9.54,3.27,11.51S856.52,1058.87,853.59,1055.94Z"/><path class="cls-19" d="M837.48,1023.35c2.93,2.94,13.64,17.33,11.36,19.6s-16.66-8.42-19.6-11.36-5.25-9.54-3.28-11.51S834.54,1020.42,837.48,1023.35Z"/><path class="cls-19" d="M829.24,1047.7c2.94-2.93,17.33-13.64,19.6-11.36s-8.43,16.66-11.36,19.6-9.55,5.25-11.52,3.27S826.3,1050.64,829.24,1047.7Z"/><path class="cls-19" d="M861.83,1031.59c-2.94,2.94-17.33,13.64-19.61,11.36s8.43-16.66,11.37-19.6,9.54-5.24,11.51-3.27S864.76,1028.66,861.83,1031.59Z"/><path class="cls-20" d="M845.46,1048.29a9,9,0,1,1,9-9A9,9,0,0,1,845.46,1048.29Z"/><path class="cls-19" d="M72.46,950.77c-6.3,0-18.8-3.95-18.8-8.83s12.5-8.83,18.8-8.83c11,0,15.84,4.61,15.84,8.83S83.28,950.77,72.46,950.77Z"/><path class="cls-21" d="M64,942.84c-.81,0-2.4-.41-2.4-.9s1.59-.9,2.4-.9c1.4,0,2,.47,2,.9S65.36,942.84,64,942.84Z"/><path class="cls-19" d="M31.83,933.11c6.29,0,18.79,3.95,18.79,8.83s-12.5,8.83-18.79,8.83c-11,0-15.85-4.61-15.85-8.83S21,933.11,31.83,933.11Z"/><path class="cls-19" d="M55,963.91c-3.22-5.41-6.23-18.17-2-20.66s14,6.2,17.21,11.61c5.66,9.47,4.17,16,.55,18.13S60.52,973.2,55,963.91Z"/><path class="cls-19" d="M49.31,920c3.23,5.4,6.24,18.16,2,20.66s-14-6.2-17.21-11.61c-5.65-9.47-4.17-16-.54-18.13S43.76,910.68,49.31,920Z"/><path class="cls-19" d="M34.31,955.07c3.16-5.44,12.85-14.26,17.07-11.81s1.36,15.24-1.8,20.68C44,973.48,37.64,975.33,34,973.21S28.87,964.43,34.31,955.07Z"/><path class="cls-19" d="M70,928.81c-3.16,5.44-12.86,14.26-17.07,11.81s-1.36-15.24,1.8-20.68c5.54-9.54,11.94-11.39,15.59-9.27S75.41,919.44,70,928.81Z"/><path class="cls-22" d="M51.87,950.05A8.12,8.12,0,1,1,60,941.94,8.11,8.11,0,0,1,51.87,950.05Z"/><path class="cls-21" d="M39.57,941c.81,0,2.4.41,2.4.9s-1.59.9-2.4.9c-1.4,0-2-.47-2-.9S38.2,941,39.57,941Z"/><path class="cls-21" d="M56.81,953.1c-.38-.71-.79-2.3-.35-2.53s1.54,1,1.92,1.67c.67,1.24.56,2,.18,2.2S57.47,954.31,56.81,953.1Z"/><path class="cls-21" d="M46.75,930.78c.38.71.79,2.3.35,2.53s-1.54-1-1.93-1.67c-.66-1.24-.55-2-.17-2.2S46.09,929.57,46.75,930.78Z"/><path class="cls-21" d="M58.88,932c-.41.69-1.58,1.84-2,1.58s.06-1.82.47-2.51c.73-1.2,1.45-1.48,1.82-1.25S59.6,930.8,58.88,932Z"/><path class="cls-21" d="M44.68,951.9c.41-.68,1.58-1.83,2-1.57s-.06,1.82-.47,2.5c-.73,1.2-1.45,1.49-1.82,1.26S44,953.08,44.68,951.9Z"/><path class="cls-21" d="M61.79,949c-.69-.41-1.85-1.57-1.59-2s1.82,0,2.51.47c1.2.72,1.49,1.44,1.27,1.8S63,949.69,61.79,949Z"/><path class="cls-21" d="M41.77,934.9c.69.41,1.85,1.57,1.59,2s-1.82,0-2.51-.46c-1.2-.72-1.49-1.44-1.27-1.8S40.59,934.19,41.77,934.9Z"/><path class="cls-21" d="M50.36,954.09c0-.8.5-2.37,1-2.35s.83,1.63.8,2.43c-.06,1.4-.56,2-1,2S50.3,955.47,50.36,954.09Z"/><path class="cls-21" d="M53.2,929.78c0,.81-.5,2.38-1,2.36s-.82-1.63-.79-2.43c.06-1.41.56-2,1-2S53.26,928.41,53.2,929.78Z"/><path class="cls-21" d="M63,937.05c-.71.37-2.31.76-2.54.32s1-1.54,1.7-1.91c1.24-.65,2-.52,2.21-.15S64.22,936.4,63,937.05Z"/><path class="cls-21" d="M40.56,946.83c.71-.37,2.31-.76,2.54-.32s-1,1.53-1.7,1.91c-1.25.65-2,.52-2.21.15S39.34,947.47,40.56,946.83Z"/><path class="cls-23" d="M268.29,845.19c-5.5,0-17.8-4.84-17.8-10.82s12.3-10.83,17.8-10.83c4.55,0,11.43,3.45,12.63,8,.25,1-2.66,1.82-2.66,2.87s2.94,2,2.73,2.87C279.88,841.89,272.93,845.19,268.29,845.19Z"/><path class="cls-24" d="M261.46,833.23a14.36,14.36,0,0,1,4.57-2c2.25-.44,7.9,1,10,0,2.88-1.37,1.14-3.82-1.05-4.81a17.72,17.72,0,0,0-7.42-1.54c-5.09.32-9.38,3.47-13.44,6.4-5,3.59,2.85,8.1,6.14,9.22a25.25,25.25,0,0,0,14.41.26c2.6-.64,4.3-1.32,3.22-4.38-.91-2.57-3.78-2.75-6.21-3.11s-8.21-1.82-10.18-.07"/><path class="cls-23" d="M225.7,825.07c5.49-.46,18.15,3.34,18.65,9.3S233,846.18,227.51,846.64c-4.53.38-11.67-2.48-13.25-6.88-.33-.93,2.5-2,2.41-3.08s-3.09-1.74-2.95-2.63C214.44,829.32,221.08,825.45,225.7,825.07Z"/><path class="cls-24" d="M233.51,836.41a14.35,14.35,0,0,1-4.39,2.35c-2.21.62-8-.32-9.92.83-2.76,1.6-.82,3.9,1.44,4.71a18,18,0,0,0,7.53.92c5-.75,9.05-4.25,12.86-7.5,4.67-4-3.52-7.84-6.89-8.68a25.24,25.24,0,0,0-14.39.94c-2.53.85-4.17,1.67-2.84,4.63,1.12,2.49,4,2.43,6.45,2.59s8.34,1.13,10.15-.79"/><path class="cls-23" d="M229.11,848.06c2.12-5.08,11.32-14.57,16.84-12.27s5.26,15.52,3.14,20.6c-1.75,4.19-7.57,9.22-12.2,8.59-1-.13-.66-3.15-1.63-3.55s-3,1.94-3.69,1.41C227.7,860,227.32,852.35,229.11,848.06Z"/><path class="cls-24" d="M242.77,846.36a14.17,14.17,0,0,1,.07,5c-.46,2.25-4,6.92-3.83,9.19.15,3.18,3.08,2.53,4.84.88a17.74,17.74,0,0,0,4.28-6.25c1.66-4.82.4-10-.74-14.87-1.4-6-8.57-.48-10.88,2.12a25.34,25.34,0,0,0-5.78,13.21c-.4,2.64-.43,4.47,2.81,4.65,2.72.15,4-2.43,5.26-4.53s4.84-6.89,4-9.37"/><path class="cls-23" d="M266.8,823c-3.26,4.43-14.46,11.46-19.27,7.92s-1.42-16.32,1.85-20.76c2.69-3.66,9.54-7.15,13.89-5.44.92.36-.11,3.21.73,3.83s3.35-1.18,3.93-.49C271,811.73,269.55,819.27,266.8,823Z"/><path class="cls-24" d="M253.12,821.42a14.21,14.21,0,0,1,1.13-4.84c1-2.08,5.47-5.79,5.9-8,.61-3.14-2.4-3.19-4.49-2A17.71,17.71,0,0,0,250,811.6c-2.75,4.29-2.76,9.62-2.82,14.62-.06,6.15,8.22,2.51,11.07.53A25.25,25.25,0,0,0,267,815.3c1-2.47,1.49-4.25-1.62-5.19-2.61-.79-4.45,1.41-6.18,3.15s-6.34,5.54-6.1,8.16"/><path class="cls-23" d="M248.73,858.08c-2.89-4.69-5.22-17.7-.13-20.84s15.67,4.79,18.56,9.47c2.38,3.87,3.06,11.53-.15,14.93-.68.71-2.94-1.31-3.83-.76s-.16,3.55-1,3.83C257.62,866.2,251.17,862,248.73,858.08Z"/><path class="cls-24" d="M255.32,846a14.45,14.45,0,0,1,4.08,2.86c1.56,1.69,3.32,7.24,5.22,8.47,2.68,1.73,3.86-1,3.55-3.42a17.85,17.85,0,0,0-2.58-7.12c-2.95-4.16-7.88-6.16-12.5-8.08-5.68-2.36-5.4,6.68-4.63,10.07a25.31,25.31,0,0,0,7.34,12.4c1.91,1.87,3.39,3,5.42.44,1.71-2.12.36-4.66-.61-6.92s-2.76-7.95-5.29-8.7"/><path class="cls-23" d="M246.3,810.86c2.77,4.76,4.78,17.83-.39,20.83s-15.54-5.17-18.31-9.93c-2.29-3.93-2.78-11.6.52-14.91.69-.71,2.91,1.37,3.81.84s.25-3.54,1.1-3.79C237.62,802.51,244,806.85,246.3,810.86Z"/><path class="cls-24" d="M239.41,822.78a14.23,14.23,0,0,1-4-2.95c-1.52-1.73-3.14-7.32-5-8.6-2.63-1.8-3.87.93-3.63,3.32a17.91,17.91,0,0,0,2.4,7.19c2.85,4.24,7.73,6.36,12.3,8.39,5.62,2.51,5.56-6.54,4.88-10a25.27,25.27,0,0,0-7-12.58c-1.86-1.92-3.31-3.05-5.41-.57-1.76,2.08-.48,4.64.44,6.92s2.56,8,5.07,8.83"/><path class="cls-25" d="M248.05,840.31a5.94,5.94,0,1,1,5.93-5.94A5.94,5.94,0,0,1,248.05,840.31Z"/><path class="cls-26" d="M249.64,838.87c.32,0,.23-.8.49-.87s.88.51,1.11.37c.39-.23-.33-1.1.06-1.55s.75,0,.95-.45-.72-.39-.88-1,.62-.89.5-1.17-.78.25-1.1.12-.23-.67-.21-1c0-.1-.15-.17-.2-.06-.13.31-.32,1-.82,1s-.79-.39-1.06-.64a.12.12,0,0,0-.2.06c-.07.48.26.94-.08,1.4s-1,.52-1.19,1a.14.14,0,0,0,.11.2c2,.14.47,1,.59,1.85,0,.22.75-.52,1.44-.18C249.29,838,249.32,838.87,249.64,838.87Z"/><path class="cls-17" d="M1073.66,911.91c4,9.85-6.42,37.09-12.08,36.85s-13.16-30.14-8.42-37.69a14.68,14.68,0,0,1,10.25-6.77S1070.9,905.15,1073.66,911.91Z"/><path class="cls-17" d="M1052.56,992.93c-4-9.85,6.42-37.08,12.08-36.85s13.16,30.14,8.42,37.69a14.68,14.68,0,0,1-10.25,6.77S1055.33,999.7,1052.56,992.93Z"/><path class="cls-17" d="M1100.28,933.17c-4.63,9.58-31.86,20-35.47,15.67s13.6-29.94,22.39-31.47a14.69,14.69,0,0,1,11.89,3.09S1103.46,926.59,1100.28,933.17Z"/><path class="cls-17" d="M1025.94,971.67c4.63-9.57,31.87-20,35.47-15.66S1047.81,986,1039,987.48a14.66,14.66,0,0,1-11.88-3.1S1022.76,978.25,1025.94,971.67Z"/><path class="cls-17" d="M1102.73,965.93c-10.12,3.29-36.51-9.14-35.86-14.76s31-10.9,38.22-5.62a14.69,14.69,0,0,1,6,10.72S1109.68,963.67,1102.73,965.93Z"/><path class="cls-17" d="M1023.49,938.91c10.12-3.28,36.51,9.14,35.86,14.77s-31,10.89-38.21,5.61a14.67,14.67,0,0,1-6-10.72S1016.54,941.17,1023.49,938.91Z"/><path class="cls-17" d="M1042.8,915.82c9.71,4.36,20.94,31.27,16.68,35s-30.32-12.74-32.1-21.48a14.66,14.66,0,0,1,2.75-12S1036.13,912.83,1042.8,915.82Z"/><path class="cls-17" d="M1083.43,989c-9.71-4.35-20.94-31.27-16.69-35s30.32,12.75,32.1,21.48a14.67,14.67,0,0,1-2.74,12S1090.09,992,1083.43,989Z"/><path class="cls-27" d="M1070.76,951.55a7.65,7.65,0,1,1-7.65-7.65A7.64,7.64,0,0,1,1070.76,951.55Z"/><path class="cls-27" d="M1064.9,934.87a1.79,1.79,0,1,1-1.79-1.78A1.79,1.79,0,0,1,1064.9,934.87Z"/><path class="cls-27" d="M1064.9,968.26a1.79,1.79,0,1,1-1.79-1.78A1.79,1.79,0,0,1,1064.9,968.26Z"/><line class="cls-28" x1="1063.11" y1="968.26" x2="1063.11" y2="934.87"/><path class="cls-27" d="M1079.81,953.35a1.79,1.79,0,1,1,1.78-1.78A1.79,1.79,0,0,1,1079.81,953.35Z"/><path class="cls-27" d="M1046.42,953.35a1.79,1.79,0,1,1,1.78-1.78A1.79,1.79,0,0,1,1046.42,953.35Z"/><line class="cls-28" x1="1046.42" y1="951.57" x2="1079.81" y2="951.57"/><path class="cls-27" d="M1076.18,941a1.79,1.79,0,1,1-2.53-2.53,1.79,1.79,0,0,1,2.53,2.53Z"/><path class="cls-27" d="M1052.57,964.64a1.79,1.79,0,1,1-2.53-2.53,1.79,1.79,0,0,1,2.53,2.53Z"/><line class="cls-28" x1="1051.31" y1="963.37" x2="1074.92" y2="939.76"/><path class="cls-27" d="M1052.57,938.5a1.79,1.79,0,1,1-2.53,0A1.79,1.79,0,0,1,1052.57,938.5Z"/><path class="cls-27" d="M1076.18,962.11a1.79,1.79,0,0,1,0,2.53,1.79,1.79,0,1,1-2.53-2.53A1.79,1.79,0,0,1,1076.18,962.11Z"/><line class="cls-28" x1="1074.92" y1="963.37" x2="1051.31" y2="939.76"/><path class="cls-29" d="M1614.54,1004.07c-1.66,4.06-11.28,20.41-14.43,19.13s1.36-19.7,3-23.77,7.14-9,9.87-7.92S1616.19,1000,1614.54,1004.07Z"/><path class="cls-29" d="M1584.87,1044.34c1.65-4.06,11.27-20.41,14.42-19.12s-1.36,19.69-3,23.76-7.14,9-9.87,7.93S1583.22,1048.41,1584.87,1044.34Z"/><path class="cls-29" d="M1619.84,1039c-4.07-1.65-20.41-11.27-19.13-14.43s19.7,1.36,23.77,3,9,7.14,7.92,9.87S1623.91,1040.69,1619.84,1039Z"/><path class="cls-29" d="M1579.56,1009.37c4.07,1.66,20.42,11.27,19.13,14.42s-19.7-1.35-23.76-3-9-7.14-7.93-9.87S1575.5,1007.72,1579.56,1009.37Z"/><path class="cls-29" d="M1624.33,1019.87c-4,1.8-22.24,7-23.63,3.89s14.57-13.32,18.58-15.12,11.4-1.61,12.61,1.07S1628.34,1018.07,1624.33,1019.87Z"/><path class="cls-29" d="M1575.07,1028.54c4-1.8,22.24-7,23.64-3.89s-14.58,13.32-18.58,15.13-11.4,1.61-12.61-1.08S1571.07,1030.34,1575.07,1028.54Z"/><path class="cls-29" d="M1604,1048.84c-1.8-4-7-22.24-3.89-23.64s13.32,14.58,15.12,18.58,1.61,11.4-1.07,12.61S1605.84,1052.84,1604,1048.84Z"/><path class="cls-29" d="M1595.37,999.57c1.8,4,7,22.24,3.89,23.64s-13.33-14.58-15.13-18.58-1.61-11.4,1.08-12.61S1593.56,995.57,1595.37,999.57Z"/><path class="cls-30" d="M1605.86,1000c0,4.39-2.76,23.16-6.16,23.16s-6.16-18.77-6.16-23.16,3.22-11.05,6.16-11.05S1605.86,995.58,1605.86,1000Z"/><path class="cls-30" d="M1593.54,1048.45c0-4.39,2.76-23.16,6.16-23.16s6.16,18.77,6.16,23.16-3.21,11-6.16,11S1593.54,1052.83,1593.54,1048.45Z"/><path class="cls-30" d="M1623.94,1030.37c-4.39,0-23.15-2.76-23.15-6.16s18.76-6.17,23.15-6.17,11.06,3.22,11.06,6.17S1628.33,1030.37,1623.94,1030.37Z"/><path class="cls-30" d="M1575.46,1018c4.39,0,23.15,2.76,23.15,6.17s-18.76,6.16-23.15,6.16-11-3.22-11-6.16S1571.07,1018,1575.46,1018Z"/><path class="cls-30" d="M1620.89,1010.91c-3,3.18-18,14.85-20.44,12.51s8.49-17.83,11.52-21,10-5.78,12.09-3.75S1623.92,1007.74,1620.89,1010.91Z"/><path class="cls-30" d="M1578.52,1037.5c3-3.18,18-14.85,20.43-12.51s-8.49,17.83-11.52,21-10,5.78-12.09,3.75S1575.49,1040.67,1578.52,1037.5Z"/><path class="cls-30" d="M1613,1045.39c-3.17-3-14.85-18-12.5-20.43s17.83,8.49,21,11.52,5.78,10,3.75,12.09S1616.17,1048.42,1613,1045.39Z"/><path class="cls-30" d="M1586.41,1003c3.18,3,14.85,18,12.5,20.43s-17.82-8.49-21-11.52-5.79-9.95-3.75-12.08S1583.23,1000,1586.41,1003Z"/><path class="cls-20" d="M1604.71,1025.29a5,5,0,1,1-5-5A5,5,0,0,1,1604.71,1025.29Z"/><path class="cls-31" d="M547.07,959.25c0,5.66-4.33,29.84-9.68,29.84s-9.69-24.18-9.69-29.84c0-9.69,5-14.25,9.69-14.25S547.07,950.13,547.07,959.25Z"/><path class="cls-31" d="M527.7,1021.75c0-5.66,4.34-29.85,9.69-29.85s9.68,24.19,9.68,29.85c0,9.68-5.05,14.25-9.68,14.25S527.7,1030.87,527.7,1021.75Z"/><path class="cls-31" d="M568.63,1000.19c-5.65,0-29.84-4.34-29.84-9.69s24.19-9.69,29.84-9.69c9.69,0,14.26,5.06,14.26,9.69S577.76,1000.19,568.63,1000.19Z"/><path class="cls-31" d="M506.14,980.81c5.66,0,29.84,4.34,29.84,9.69s-24.18,9.69-29.84,9.69c-9.69,0-14.25-5.06-14.25-9.69S497,980.81,506.14,980.81Z"/><path class="cls-31" d="M566.33,975.25c-4,4-24.17,18-28,14.26s10.25-24,14.25-28c6.85-6.85,13.65-6.5,16.93-3.22S572.78,968.8,566.33,975.25Z"/><path class="cls-31" d="M508.44,1005.75c4-4,24.17-18,27.95-14.26s-10.25,24-14.25,28c-6.85,6.85-13.65,6.51-16.93,3.23S502,1012.2,508.44,1005.75Z"/><path class="cls-31" d="M552.63,1019.44c-4-4-18-24.16-14.25-28s24,10.26,28,14.26c6.85,6.85,6.51,13.65,3.23,16.92S559.08,1025.9,552.63,1019.44Z"/><path class="cls-31" d="M522.14,961.55c4,4,18,24.17,14.25,28s-23.95-10.25-27.95-14.26c-6.85-6.85-6.5-13.65-3.23-16.92S515.69,955.1,522.14,961.55Z"/><path class="cls-32" d="M543.85,990.5a6.46,6.46,0,1,1-6.46-6.46A6.46,6.46,0,0,1,543.85,990.5Z"/><path class="cls-33" d="M1556.29,813.9c.27,3.05-1.42,15.92-4.32,15.92s-4.21-12.55-4.21-15.62c0-2.29,1.7-8.29,4.21-8.29S1556,810.84,1556.29,813.9Z"/><path class="cls-33" d="M1547.79,847.84c-.27-3.06,1.42-15.93,4.32-15.93s4.21,12.56,4.21,15.62c0,2.3-1.7,8.3-4.21,8.3S1548.06,850.89,1547.79,847.84Z"/><path class="cls-33" d="M1569,835.12c-3,.27-15.93-1.42-15.93-4.32s12.56-4.21,15.63-4.21c2.29,0,8.29,1.7,8.29,4.21S1572.07,834.85,1569,835.12Z"/><path class="cls-33" d="M1535.07,826.62c3.06-.27,15.93,1.41,15.93,4.31s-12.56,4.22-15.63,4.22c-2.29,0-8.29-1.7-8.29-4.22S1532,826.89,1535.07,826.62Z"/><path class="cls-33" d="M1543.05,815.86c2.35,2,10.26,12.27,8.21,14.32s-11.86-5.9-14-8.07c-1.62-1.62-4.66-7.07-2.88-8.84S1540.7,813.89,1543.05,815.86Z"/><path class="cls-33" d="M1561,845.87c-2.36-2-10.26-12.26-8.21-14.31s11.85,5.9,14,8.07c1.62,1.62,4.67,7.06,2.89,8.84S1563.39,847.84,1561,845.87Z"/><path class="cls-33" d="M1567.05,821.87c-2,2.35-12.27,10.26-14.32,8.21s5.9-11.85,8.07-14c1.62-1.62,7.06-4.67,8.84-2.89S1569,819.52,1567.05,821.87Z"/><path class="cls-33" d="M1537,839.86c2-2.35,12.27-10.26,14.32-8.21s-5.9,11.86-8.07,14c-1.62,1.62-7.06,4.66-8.84,2.88S1535.07,842.21,1537,839.86Z"/><path class="cls-34" d="M1555.48,830.87a3.51,3.51,0,1,1-3.51-3.51A3.51,3.51,0,0,1,1555.48,830.87Z"/><path class="cls-19" d="M1361.72,960.7c2,5-3.26,22.44-6.12,22.33s-6.67-18.93-4.27-22.76c2-3.13,5.19.22,5.19.22S1360.32,957.27,1361.72,960.7Z"/><path class="cls-19" d="M1349.36,1008.05c-2-5,3.26-22.45,6.13-22.33s6.66,18.93,4.26,22.75c-2,3.14-5.19-.21-5.19-.21S1350.76,1011.48,1349.36,1008.05Z"/><path class="cls-19" d="M1376.54,971.83c-2,5-18,13.72-20,11.62s8.51-18.17,12.91-19.21c3.6-.86,3.55,3.79,3.55,3.79S1378,968.4,1376.54,971.83Z"/><path class="cls-19" d="M1334.54,996.92c2-5,18-13.72,20-11.62s-8.52,18.17-12.92,19.21c-3.6.85-3.55-3.8-3.55-3.8S1333.13,1000.35,1334.54,996.92Z"/><path class="cls-19" d="M1368.14,1005.35c-5-2-13.77-18-11.68-20s18.19,8.47,19.25,12.86c.86,3.6-3.79,3.57-3.79,3.57S1371.57,1006.75,1368.14,1005.35Z"/><path class="cls-19" d="M1343,963.4c5,2,13.76,18,11.67,20s-18.19-8.47-19.25-12.86c-.86-3.61,3.79-3.57,3.79-3.57S1339.51,962,1343,963.4Z"/><path class="cls-19" d="M1379.54,989.11c-4.86,2.34-22.6-1.89-22.65-4.76s18.49-7.8,22.45-5.63c3.25,1.78.1,5.2.1,5.2S1382.88,987.51,1379.54,989.11Z"/><path class="cls-19" d="M1331.54,979.63c4.86-2.33,22.6,1.9,22.65,4.77s-18.49,7.8-22.45,5.63c-3.25-1.78-.1-5.2-.1-5.2S1328.2,981.24,1331.54,979.63Z"/><path class="cls-35" d="M1358.32,984.44a3.12,3.12,0,1,1-3.11-3.12A3.11,3.11,0,0,1,1358.32,984.44Z"/><path class="cls-12" d="M820.47,968a5.08,5.08,0,0,1-5.35-4.77V644.58a5.39,5.39,0,0,1,10.7,0V963.23A5.08,5.08,0,0,1,820.47,968Z"/><path class="cls-12" d="M820.47,765.19a5.75,5.75,0,0,1-3.2-.94l-26.77-17.8a4.78,4.78,0,0,1-2-2.58l-41.3-136.18c-.77-2.54.92-5.15,3.78-5.84a5.45,5.45,0,0,1,6.56,3.36L798.39,739.8l25.28,16.81a4.43,4.43,0,0,1,1.09,6.67A5.59,5.59,0,0,1,820.47,765.19Z"/><path class="cls-12" d="M820.47,788.83a5.68,5.68,0,0,1-3.51-1.17,4.42,4.42,0,0,1-.53-6.73l39.62-40.5L874.12,664a5.37,5.37,0,0,1,6.34-3.69c2.89.55,4.74,3.07,4.13,5.65l-18.35,77.62a4.57,4.57,0,0,1-1.2,2.15L824.51,787.2A5.66,5.66,0,0,1,820.47,788.83Z"/><ellipse class="cls-36" cx="820.47" cy="586.71" rx="118.53" ry="105.54"/><rect class="cls-37" x="733.29" y="496.15" width="19.88" height="42.21"/><rect class="cls-37" x="747.06" y="559.47" width="19.88" height="42.21"/><rect class="cls-37" x="709.59" y="551.98" width="19.88" height="42.21"/><rect class="cls-37" x="692" y="607.81" width="19.88" height="42.21"/><rect class="cls-37" x="733.29" y="639.13" width="19.88" height="42.21"/><rect class="cls-37" x="795.24" y="517.26" width="19.88" height="42.21"/><rect class="cls-37" x="840.35" y="473" width="19.88" height="42.21"/><rect class="cls-37" x="864.82" y="538.36" width="19.88" height="42.21"/><rect class="cls-37" x="903.82" y="517.26" width="19.88" height="42.21"/><rect class="cls-37" x="919.12" y="586.71" width="19.88" height="42.21"/><rect class="cls-37" x="874.76" y="594.2" width="19.88" height="42.21"/><rect class="cls-37" x="840.35" y="625.52" width="19.88" height="42.21"/><rect class="cls-37" x="795.24" y="573.09" width="19.88" height="42.21"/><rect class="cls-37" x="795.24" y="628.92" width="19.88" height="42.21"/><rect class="cls-12" x="1181.94" y="794.04" width="9.78" height="112.96"/><polygon class="cls-12" points="1184.23 866.3 1152.07 846.17 1152.07 793.86 1161.84 793.86 1161.84 840.75 1189.42 858.01 1184.23 866.3"/><polygon class="cls-12" points="1188.45 848.21 1185.56 838.87 1210.36 831.17 1210.36 787.7 1220.13 787.7 1220.13 838.37 1188.45 848.21"/><path class="cls-38" d="M1233.12,521.05h0c-1.69,0-3.36.05-5,.15V505.9a35.9,35.9,0,0,0-35.9-35.9h0a87.2,87.2,0,0,0-87.2,87.2V773.76a32.59,32.59,0,0,0,32.58,32.59h98.85A32.59,32.59,0,0,0,1269,773.76V556.94A35.89,35.89,0,0,0,1233.12,521.05Z"/><rect class="cls-39" x="1164.01" y="570.29" width="18.46" height="74.58"/><rect class="cls-39" x="1194.07" y="613.37" width="33.67" height="155.32"/><rect class="cls-39" x="1116.22" y="668.77" width="14.48" height="29.69"/><rect class="cls-39" x="1116.22" y="727.06" width="14.48" height="29.69"/><rect class="cls-39" x="1116.22" y="598.53" width="14.48" height="29.69"/><rect class="cls-39" x="1200.22" y="564.86" width="14.48" height="29.69"/><rect class="cls-39" x="1241.49" y="602.51" width="14.48" height="29.69"/><rect class="cls-39" x="1241.49" y="661.53" width="14.48" height="29.69"/><rect class="cls-39" x="1241.49" y="720.54" width="14.48" height="29.69"/><rect class="cls-39" x="1149.17" y="602.51" width="6.15" height="164.73"/><circle class="cls-39" cx="1199.13" cy="503.31" r="13.4"/><circle class="cls-39" cx="1144.1" cy="513.81" r="13.4"/><circle class="cls-39" cx="1248.74" cy="556.89" r="13.4"/><rect class="cls-39" x="1137.22" y="543.5" width="66.98" height="11.22"/><rect class="cls-12" x="466.94" y="784.04" width="9.78" height="112.96"/><polygon class="cls-12" points="469.23 856.3 437.07 836.17 437.07 783.86 446.84 783.86 446.84 830.75 474.42 848.01 469.23 856.3"/><polygon class="cls-12" points="473.45 838.21 470.56 828.87 495.36 821.17 495.36 777.7 505.13 777.7 505.13 828.37 473.45 838.21"/><path class="cls-38" d="M518.12,511.05h0c-1.69,0-3.36.05-5,.15V495.9A35.9,35.9,0,0,0,477.2,460h0A87.2,87.2,0,0,0,390,547.2V763.76a32.59,32.59,0,0,0,32.58,32.59h98.85A32.59,32.59,0,0,0,554,763.76V546.94A35.89,35.89,0,0,0,518.12,511.05Z"/><rect class="cls-39" x="449.01" y="560.29" width="18.46" height="74.58"/><rect class="cls-39" x="479.07" y="603.37" width="33.67" height="155.32"/><rect class="cls-39" x="401.22" y="658.77" width="14.48" height="29.69"/><rect class="cls-39" x="401.22" y="717.06" width="14.48" height="29.69"/><rect class="cls-39" x="401.22" y="588.53" width="14.48" height="29.69"/><rect class="cls-39" x="485.22" y="554.86" width="14.48" height="29.69"/><rect class="cls-39" x="526.49" y="592.51" width="14.48" height="29.69"/><rect class="cls-39" x="526.49" y="651.53" width="14.48" height="29.69"/><rect class="cls-39" x="526.49" y="710.54" width="14.48" height="29.69"/><rect class="cls-39" x="434.17" y="592.51" width="6.15" height="164.73"/><circle class="cls-39" cx="484.13" cy="493.31" r="13.4"/><circle class="cls-39" cx="429.1" cy="503.81" r="13.4"/><circle class="cls-39" cx="533.74" cy="546.89" r="13.4"/><rect class="cls-39" x="422.22" y="533.5" width="66.98" height="11.22"/><path class="cls-12" d="M60.92,902.19a8.8,8.8,0,0,1-8.8-8.8v-349a8.81,8.81,0,0,1,17.61,0v349A8.8,8.8,0,0,1,60.92,902.19Z"/><path class="cls-12" d="M53.81,727.67H-8.73a8.81,8.81,0,0,1-8.81-8.8V610.63a8.81,8.81,0,0,1,8.81-8.8,8.8,8.8,0,0,1,8.8,8.8v99.43H53.81a8.81,8.81,0,0,1,0,17.61Z"/><path class="cls-12" d="M120.1,762.12H60.92a8.8,8.8,0,1,1,0-17.6H111.3V637.6a8.8,8.8,0,0,1,17.6,0V753.32A8.8,8.8,0,0,1,120.1,762.12Z"/><path class="cls-12" d="M60.92,686.1H-67.53a8.8,8.8,0,0,1-8.8-8.8l0-83a8.8,8.8,0,0,1,8.8-8.8h0a8.8,8.8,0,0,1,8.8,8.8l0,74.15H60.92a8.81,8.81,0,1,1,0,17.61Z"/><path class="cls-39" d="M216.88,396.23H172.72v-21a25.12,25.12,0,0,0-25.12-25.12H109.42v-43A25.12,25.12,0,0,0,84.3,282H-6.27a25.12,25.12,0,0,0-25.12,25.12v67H-64.32a25.12,25.12,0,0,0-25.12,25.12v47.91H-110a25.11,25.11,0,0,0-25.12,25.12V585A25.12,25.12,0,0,0-110,610.07h85.36v17.58A25.12,25.12,0,0,0,.47,652.76h171.1a25.11,25.11,0,0,0,25.11-25.11V559.14h20.2A25.12,25.12,0,0,0,242,534V421.34A25.12,25.12,0,0,0,216.88,396.23Z"/><rect class="cls-40" x="-73.34" y="389.11" width="108.98" height="108.98"/><rect class="cls-40" x="116.54" y="410.46" width="108.98" height="108.98"/><rect class="cls-10" x="67.85" y="455.02" width="97" height="154.67"/><rect class="cls-10" x="-43.38" y="446.41" width="97" height="106.36"/><rect class="cls-41" x="26.28" y="403.72" width="18.73" height="18.73"/><rect class="cls-41" x="136.76" y="530.3" width="16.48" height="42.32"/><rect class="cls-41" x="119.91" y="325.07" width="14.98" height="38.57"/><rect class="cls-41" x="197.43" y="440.04" width="34.45" height="62.54"/><rect class="cls-41" x="206.05" y="571.87" width="17.23" height="38.57"/><path class="cls-12" d="M1799.92,927.19a8.8,8.8,0,0,1-8.8-8.8v-349a8.81,8.81,0,0,1,17.61,0v349A8.8,8.8,0,0,1,1799.92,927.19Z"/><path class="cls-12" d="M1792.81,752.67h-62.54a8.81,8.81,0,0,1-8.81-8.8V635.63a8.81,8.81,0,0,1,17.61,0v99.43h53.74a8.81,8.81,0,0,1,0,17.61Z"/><path class="cls-12" d="M1859.1,787.12h-59.18a8.8,8.8,0,0,1,0-17.6h50.38V662.6a8.8,8.8,0,0,1,17.6,0V778.32A8.8,8.8,0,0,1,1859.1,787.12Z"/><path class="cls-12" d="M1799.92,711.1H1671.47a8.8,8.8,0,0,1-8.8-8.8l0-83a8.8,8.8,0,0,1,8.8-8.8h0a8.8,8.8,0,0,1,8.8,8.8l0,74.15h119.65a8.81,8.81,0,1,1,0,17.61Z"/><path class="cls-39" d="M1955.88,421.23h-44.16v-21a25.12,25.12,0,0,0-25.12-25.12h-38.18v-43A25.12,25.12,0,0,0,1823.3,307h-90.57a25.12,25.12,0,0,0-25.12,25.12v67h-32.93a25.12,25.12,0,0,0-25.12,25.12v47.91H1629a25.11,25.11,0,0,0-25.12,25.12V610A25.12,25.12,0,0,0,1629,635.07h85.36v17.58a25.12,25.12,0,0,0,25.12,25.11h171.1a25.11,25.11,0,0,0,25.11-25.11V584.14h20.2A25.12,25.12,0,0,0,1981,559V446.34A25.12,25.12,0,0,0,1955.88,421.23Z"/><rect class="cls-40" x="1665.66" y="414.11" width="108.98" height="108.98"/><rect class="cls-40" x="1623.34" y="557.92" width="108.98" height="59.17"/><rect class="cls-40" x="1855.54" y="435.46" width="108.98" height="108.98"/><rect class="cls-10" x="1806.85" y="480.02" width="97" height="154.67"/><rect class="cls-10" x="1695.62" y="471.41" width="97" height="106.36"/><rect class="cls-41" x="1765.28" y="428.72" width="18.73" height="18.73"/><rect class="cls-41" x="1875.76" y="555.3" width="16.48" height="42.32"/><rect class="cls-41" x="1633.45" y="432.09" width="24.34" height="24.34"/><rect class="cls-41" x="1599" y="526.46" width="10.11" height="67.04"/><rect class="cls-41" x="1654.43" y="579.27" width="22.85" height="22.85"/><rect class="cls-41" x="1710.6" y="502.49" width="19.47" height="45.69"/><rect class="cls-41" x="1858.91" y="350.07" width="14.98" height="38.57"/></g></g></g></svg>