<svg id="Layer_1" data-name="Layer 1" xmlns="http://www.w3.org/2000/svg" xmlns:xlink="http://www.w3.org/1999/xlink" viewBox="0 0 1025 769"><defs><style>.cls-1{fill:none;}.cls-2{fill:#c8d434;}.cls-3{fill:#d1d938;}.cls-4{clip-path:url(#clip-path);}.cls-5{fill:#f6f4c3;}.cls-6{fill:#aeae70;}.cls-7{fill:#ff4df7;}</style><clipPath id="clip-path"><rect class="cls-1" x="1.5" y="-1.5" width="1025" height="772"/></clipPath></defs><title>bgGame</title><rect class="cls-2" x="-16" y="-68.5" width="151" height="151"/><rect class="cls-3" x="135" y="-68.5" width="151" height="151"/><rect class="cls-2" x="285" y="-68.5" width="151" height="151"/><rect class="cls-3" x="436" y="-68.5" width="151" height="151"/><rect class="cls-2" x="587" y="-68.5" width="151" height="151"/><rect class="cls-3" x="737" y="-68.5" width="151" height="151"/><rect class="cls-2" x="888" y="-68.5" width="151" height="151"/><rect class="cls-3" x="-16" y="82.5" width="151" height="151"/><rect class="cls-2" x="135" y="82.5" width="151" height="151"/><rect class="cls-3" x="285" y="82.5" width="151" height="151"/><rect class="cls-2" x="436" y="82.5" width="151" height="151"/><rect class="cls-3" x="587" y="82.5" width="151" height="151"/><rect class="cls-2" x="737" y="82.5" width="151" height="151"/><rect class="cls-3" x="888" y="82.5" width="151" height="151"/><rect class="cls-2" x="-16" y="233.5" width="151" height="151"/><rect class="cls-3" x="135" y="233.5" width="151" height="151"/><rect class="cls-2" x="285" y="233.5" width="151" height="151"/><rect class="cls-3" x="436" y="233.5" width="151" height="151"/><rect class="cls-2" x="587" y="233.5" width="151" height="151"/><rect class="cls-3" x="737" y="233.5" width="151" height="151"/><rect class="cls-2" x="888" y="233.5" width="151" height="151"/><rect class="cls-3" x="-16" y="384.5" width="151" height="151"/><rect class="cls-2" x="135" y="384.5" width="151" height="151"/><rect class="cls-3" x="285" y="384.5" width="151" height="151"/><rect class="cls-2" x="436" y="384.5" width="151" height="151"/><rect class="cls-3" x="587" y="384.5" width="151" height="151"/><rect class="cls-2" x="737" y="384.5" width="151" height="151"/><rect class="cls-3" x="888" y="384.5" width="151" height="151"/><rect class="cls-2" x="-16" y="535.5" width="151" height="151"/><rect class="cls-3" x="135" y="535.5" width="151" height="151"/><rect class="cls-2" x="285" y="535.5" width="151" height="151"/><rect class="cls-3" x="436" y="535.5" width="151" height="151"/><rect class="cls-2" x="587" y="535.5" width="151" height="151"/><rect class="cls-3" x="737" y="535.5" width="151" height="151"/><rect class="cls-2" x="888" y="535.5" width="151" height="151"/><rect class="cls-3" x="-16" y="686.5" width="151" height="151"/><rect class="cls-2" x="135" y="686.5" width="151" height="151"/><rect class="cls-3" x="285" y="686.5" width="151" height="151"/><rect class="cls-2" x="436" y="686.5" width="151" height="151"/><rect class="cls-3" x="587" y="686.5" width="151" height="151"/><rect class="cls-2" x="737" y="686.5" width="151" height="151"/><rect class="cls-3" x="888" y="686.5" width="151" height="151"/><g class="cls-4"><polygon class="cls-5" points="444.5 174.83 967.5 174.83 967.5 700.83 442.5 700.83 444.5 174.83"/><path class="cls-6" d="M963.5,178.83v518h-518v-518h518m0-9h-518a9,9,0,0,0-9,9v518a9,9,0,0,0,9,9h518a9,9,0,0,0,9-9v-518a9,9,0,0,0-9-9Z"/><rect class="cls-2" x="512" y="244" width="385" height="387"/><path class="cls-7" d="M898,635.83H511a4.49,4.49,0,0,1-4.5-4.5v-387a4.5,4.5,0,0,1,4.5-4.5H898a4.5,4.5,0,0,1,4.5,4.5v387A4.49,4.49,0,0,1,898,635.83Zm-382.5-9h378v-378h-378Z"/><path class="cls-6" d="M934.5,672.33h-12v-9H930V652.2h9v12h-4.5Zm-24,0h-12v-9h12Zm-24,0h-12v-9h12Zm-24,0h-12v-9h12Zm-24,0h-12v-9h12Zm-24,0h-12v-9h12Zm-24,0h-12v-9h12Zm-24,0h-12v-9h12Zm-24,0h-12v-9h12Zm-24,0h-12v-9h12Zm-24,0h-12v-9h12Zm-24,0h-12v-9h12Zm-24,0h-12v-9h12Zm-24,0h-12v-9h12Zm-24,0h-12v-9h12Zm-24,0h-12v-9h12Zm-24,0h-12v-9h12Zm-24,0h-12v-9h12Zm-24,0h-12v-9h12Zm-24,0H470V659.74h9v8.09h-.59Zm.59-24.59h-9v-12h9Zm460-7.54h-9v-12h9ZM479,623.73h-9v-12h9Zm460-7.54h-9v-12h9ZM479,599.73h-9v-12h9Zm460-7.54h-9v-12h9ZM479,575.72h-9v-12h9Zm460-7.54h-9v-12h9ZM479,551.72h-9v-12h9Zm460-7.54h-9v-12h9ZM479,527.71h-9v-12h9Zm460-7.54h-9v-12h9ZM479,503.71h-9v-12h9Zm460-7.54h-9v-12h9ZM479,479.7h-9v-12h9Zm460-7.54h-9v-12h9ZM479,455.7h-9v-12h9Zm460-7.54h-9v-12h9ZM479,431.69h-9v-12h9Zm460-7.54h-9v-12h9ZM479,407.69h-9v-12h9Zm460-7.54h-9v-12h9ZM479,383.68h-9v-12h9Zm460-7.54h-9v-12h9ZM479,359.68h-9v-12h9Zm460-7.54h-9v-12h9ZM479,335.67h-9v-12h9Zm460-7.54h-9v-12h9ZM479,311.67h-9v-12h9Zm460-7.54h-9v-12h9ZM479,287.67h-9v-12h9Zm460-7.55h-9v-12h9ZM479,263.66h-9v-12h9Zm460-7.54h-9v-12h9ZM479,239.66h-9v-12h9Zm460-7.54h-9v-12h9ZM479,215.65h-9V203.33h8.69v4.5H479Zm455.5-3.32H922.77v-9H939v4.78h-4.5Zm-23.73,0h-12v-9h12Zm-24,0h-12v-9h12Zm-24,0h-12v-9h12Zm-24,0h-12v-9h12Zm-24,0h-12v-9h12Zm-24,0h-12v-9h12Zm-24,0h-12v-9h12Zm-24,0h-12v-9h12Zm-24,0h-12v-9h12Zm-24,0h-12v-9h12Zm-24,0h-12v-9h12Zm-24,0h-12v-9h12Zm-24,0h-12v-9h12Zm-24,0h-12v-9h12Zm-24,0h-12v-9h12Zm-24,0h-12v-9h12Zm-24,0h-12v-9h12Zm-24,0h-12v-9h12Z"/></g></svg>